NotoSans-Italic.ufo
<glyph name="Eth" format="2">
  <advance width="667"/>
  <unicode hex="00D0"/>
  <anchor x="277" y="0" name="bottom"/>
  <anchor x="429" y="714" name="top"/>
  <outline>
    <contour>
      <point x="41" y="0" type="line"/>
      <point x="217" y="0" type="line" smooth="yes"/>
      <point x="487" y="0"/>
      <point x="636" y="181"/>
      <point x="636" y="429" type="curve"/>
      <point x="636" y="622"/>
      <point x="533" y="714"/>
      <point x="361" y="714" type="curve"/>
      <point x="192" y="714" type="line"/>
      <point x="123" y="392" type="line"/>
      <point x="50" y="392" type="line"/>
      <point x="33" y="315" type="line"/>
      <point x="106" y="315" type="line"/>
    </contour>
    <contour>
      <point x="146" y="77" type="line"/>
      <point x="196" y="315" type="line"/>
      <point x="353" y="315" type="line"/>
      <point x="370" y="392" type="line"/>
      <point x="213" y="392" type="line"/>
      <point x="265" y="637" type="line"/>
      <point x="350" y="637" type="line" smooth="yes"/>
      <point x="466" y="637"/>
      <point x="542" y="576"/>
      <point x="542" y="430" type="curve"/>
      <point x="542" y="231"/>
      <point x="429" y="77"/>
      <point x="222" y="77" type="curve"/>
    </contour>
  </outline>
</glyph>
<glyph name="uni0246" format="2">
  <advance width="514"/>
  <unicode hex="0246"/>
  <anchor x="236" y="0" name="bottom"/>
  <anchor x="370" y="714" name="top"/>
  <anchor x="589" y="714" name="topright"/>
  <outline>
    <contour>
      <point x="93" y="-75" type="line"/>
      <point x="164" y="-75" type="line"/>
      <point x="525" y="760" type="line"/>
      <point x="455" y="760" type="line"/>
    </contour>
    <component base="E"/>
  </outline>
</glyph>
<glyph name="uni02F1" format="2">
  <advance width="330"/>
  <unicode hex="02F1"/>
  <outline>
    <contour>
      <point x="182" y="-240" type="line"/>
      <point x="196" y="-174" type="line"/>
      <point x="47" y="-113" type="line"/>
      <point x="222" y="-49" type="line"/>
      <point x="238" y="23" type="line"/>
      <point x="-35" y="-84" type="line"/>
      <point x="-45" y="-133" type="line"/>
    </contour>
  </outline>
</glyph>
<glyph name="uni0375" format="2">
  <advance width="221"/>
  <unicode hex="0375"/>
  <outline>
    <contour>
      <point x="-52" y="-220" type="line"/>
      <point x="31" y="-220" type="line"/>
      <point x="46" y="-177"/>
      <point x="82" y="-106"/>
      <point x="102" y="-73" type="curve"/>
      <point x="102" y="-60" type="line"/>
      <point x="54" y="-60" type="line"/>
      <point x="10" y="-103"/>
      <point x="-40" y="-178"/>
      <point x="-52" y="-210" type="curve"/>
    </contour>
  </outline>
</glyph>
<glyph name="pamphyliandigamma" format="2">
  <advance width="606"/>
  <unicode hex="0377"/>
  <anchor x="246" y="0" name="bottom"/>
  <anchor x="360" y="536" name="top"/>
  <outline>
    <contour>
      <point x="28" y="0" type="line"/>
      <point x="137" y="0" type="line"/>
      <point x="480" y="448" type="line"/>
      <point x="473" y="422"/>
      <point x="454" y="347"/>
      <point x="447" y="316" type="curve" smooth="yes"/>
      <point x="380" y="0" type="line"/>
      <point x="463" y="0" type="line"/>
      <point x="577" y="536" type="line"/>
      <point x="469" y="536" type="line"/>
      <point x="124" y="87" type="line"/>
      <point x="131" y="114"/>
      <point x="151" y="184"/>
      <point x="156" y="209" type="curve" smooth="yes"/>
      <point x="226" y="536" type="line"/>
      <point x="142" y="536" type="line"/>
    </contour>
  </outline>
</glyph>
<glyph name="Sigma" format="2">
  <advance width="523"/>
  <unicode hex="03A3"/>
  <anchor x="205" y="0" name="bottom"/>
  <anchor x="357" y="714" name="top"/>
  <outline>
    <contour>
      <point x="-15" y="0" type="line"/>
      <point x="440" y="0" type="line"/>
      <point x="457" y="79" type="line"/>
      <point x="105" y="79" type="line"/>
      <point x="354" y="362" type="line"/>
      <point x="222" y="635" type="line"/>
      <point x="546" y="635" type="line"/>
      <point x="563" y="714" type="line"/>
      <point x="140" y="714" type="line"/>
      <point x="126" y="643" type="line"/>
      <point x="260" y="369" type="line"/>
      <point x="-1" y="73" type="line"/>
    </contour>
  </outline>
</glyph>
<glyph name="delta" format="2">
  <advance width="556"/>
  <unicode hex="03B4"/>
  <anchor x="221" y="0" name="bottom"/>
  <anchor x="384" y="765" name="top"/>
  <outline>
    <contour>
      <point x="234" y="-10" type="curve" smooth="yes"/>
      <point x="406" y="-10"/>
      <point x="496" y="119"/>
      <point x="496" y="265" type="curve" smooth="yes"/>
      <point x="496" y="371"/>
      <point x="441" y="435"/>
      <point x="372" y="491" type="curve" smooth="yes"/>
      <point x="319" y="534"/>
      <point x="286" y="560"/>
      <point x="286" y="611" type="curve" smooth="yes"/>
      <point x="286" y="660"/>
      <point x="315" y="694"/>
      <point x="381" y="694" type="curve" smooth="yes"/>
      <point x="438" y="694"/>
      <point x="486" y="667"/>
      <point x="521" y="646" type="curve"/>
      <point x="556" y="709" type="line"/>
      <point x="518" y="735"/>
      <point x="460" y="765"/>
      <point x="382" y="765" type="curve" smooth="yes"/>
      <point x="271" y="765"/>
      <point x="202" y="700"/>
      <point x="202" y="611" type="curve" smooth="yes"/>
      <point x="202" y="544"/>
      <point x="242" y="498"/>
      <point x="288" y="462" type="curve"/>
      <point x="135" y="422"/>
      <point x="35" y="331"/>
      <point x="35" y="181" type="curve" smooth="yes"/>
      <point x="35" y="77"/>
      <point x="102" y="-10"/>
    </contour>
    <contour>
      <point x="243" y="63" type="curve" smooth="yes"/>
      <point x="166" y="63"/>
      <point x="125" y="112"/>
      <point x="125" y="193" type="curve" smooth="yes"/>
      <point x="125" y="321"/>
      <point x="222" y="391"/>
      <point x="338" y="419" type="curve"/>
      <point x="374" y="388"/>
      <point x="407" y="343"/>
      <point x="407" y="264" type="curve" smooth="yes"/>
      <point x="407" y="153"/>
      <point x="346" y="63"/>
    </contour>
  </outline>
</glyph>
<glyph name="rho" format="2">
  <advance width="573"/>
  <unicode hex="03C1"/>
  <anchor x="179" y="-240" name="bottom"/>
  <anchor x="343" y="536" name="top"/>
  <outline>
    <contour>
      <point x="-22" y="-240" type="line"/>
      <point x="65" y="-240" type="line"/>
      <point x="95" y="-98" type="line" smooth="yes"/>
      <point x="107" y="-42"/>
      <point x="115" y="0"/>
      <point x="123" y="52" type="curve"/>
      <point x="160" y="15"/>
      <point x="203" y="-10"/>
      <point x="269" y="-10" type="curve" smooth="yes"/>
      <point x="447" y="-10"/>
      <point x="525" y="183"/>
      <point x="525" y="334" type="curve" smooth="yes"/>
      <point x="525" y="470"/>
      <point x="457" y="545"/>
      <point x="334" y="545" type="curve" smooth="yes"/>
      <point x="178" y="545"/>
      <point x="120" y="434"/>
      <point x="95" y="315" type="curve" smooth="yes"/>
    </contour>
    <contour>
      <point x="260" y="63" type="curve" smooth="yes"/>
      <point x="207" y="63"/>
      <point x="166" y="88"/>
      <point x="140" y="116" type="curve"/>
      <point x="179" y="296" type="line" smooth="yes"/>
      <point x="202" y="403"/>
      <point x="241" y="472"/>
      <point x="329" y="472" type="curve" smooth="yes"/>
      <point x="404" y="472"/>
      <point x="436" y="419"/>
      <point x="436" y="335" type="curve" smooth="yes"/>
      <point x="436" y="211"/>
      <point x="377" y="63"/>
    </contour>
  </outline>
</glyph>
<glyph name="uni03D2" format="2">
  <advance width="516"/>
  <unicode hex="03D2"/>
  <anchor x="353" y="714" name="top"/>
  <outline>
    <contour>
      <point x="150" y="0" type="line"/>
      <point x="240" y="0" type="line"/>
      <point x="294" y="260" type="line"/>
      <point x="382" y="414"/>
      <point x="465" y="549"/>
      <point x="498" y="594" type="curve" smooth="yes"/>
      <point x="528" y="634"/>
      <point x="547" y="646"/>
      <point x="568" y="646" type="curve" smooth="yes"/>
      <point x="579" y="646"/>
      <point x="586" y="643"/>
      <point x="595" y="641" type="curve"/>
      <point x="614" y="712" type="line"/>
      <point x="599" y="716"/>
      <point x="578" y="720"/>
      <point x="560" y="720" type="curve" smooth="yes"/>
      <point x="507" y="720"/>
      <point x="475" y="694"/>
      <point x="435" y="641" type="curve" smooth="yes"/>
      <point x="394" y="585"/>
      <point x="320" y="457"/>
      <point x="266" y="356" type="curve"/>
      <point x="181" y="714" type="line"/>
      <point x="92" y="714" type="line"/>
      <point x="208" y="268" type="line"/>
    </contour>
  </outline>
</glyph>
<glyph name="uni03DA" format="2">
  <advance width="584"/>
  <unicode hex="03DA"/>
  <anchor x="235" y="0" name="bottom"/>
  <anchor x="387" y="714" name="top"/>
  <outline>
    <contour>
      <point x="293" y="0" type="line"/>
      <point x="384" y="0" type="line"/>
      <point x="431" y="224" type="line"/>
      <point x="388" y="224" type="line" smooth="yes"/>
      <point x="244" y="224"/>
      <point x="191" y="279"/>
      <point x="191" y="390" type="curve" smooth="yes"/>
      <point x="191" y="535"/>
      <point x="299" y="645"/>
      <point x="452" y="645" type="curve" smooth="yes"/>
      <point x="509" y="645"/>
      <point x="552" y="632"/>
      <point x="593" y="610" type="curve"/>
      <point x="629" y="684" type="line"/>
      <point x="581" y="710"/>
      <point x="529" y="724"/>
      <point x="452" y="724" type="curve" smooth="yes"/>
      <point x="242" y="724"/>
      <point x="96" y="582"/>
      <point x="96" y="383" type="curve" smooth="yes"/>
      <point x="96" y="241"/>
      <point x="186" y="156"/>
      <point x="324" y="150" type="curve"/>
    </contour>
  </outline>
</glyph>
<glyph name="uni03DB" format="2">
  <advance width="462"/>
  <unicode hex="03DB"/>
  <anchor x="132" y="-198" name="bottom"/>
  <anchor x="288" y="536" name="top"/>
  <outline>
    <contour>
      <point x="178" y="-198" type="curve" smooth="yes"/>
      <point x="295" y="-198"/>
      <point x="370" y="-139"/>
      <point x="370" y="-41" type="curve" smooth="yes"/>
      <point x="370" y="26"/>
      <point x="328" y="69"/>
      <point x="250" y="96" type="curve" smooth="yes"/>
      <point x="174" y="122"/>
      <point x="138" y="154"/>
      <point x="138" y="222" type="curve" smooth="yes"/>
      <point x="138" y="332"/>
      <point x="200" y="472"/>
      <point x="326" y="472" type="curve" smooth="yes"/>
      <point x="372" y="472"/>
      <point x="409" y="459"/>
      <point x="436" y="447" type="curve"/>
      <point x="461" y="520" type="line"/>
      <point x="422" y="536"/>
      <point x="379" y="546"/>
      <point x="329" y="546" type="curve" smooth="yes"/>
      <point x="143" y="546"/>
      <point x="48" y="375"/>
      <point x="48" y="215" type="curve" smooth="yes"/>
      <point x="48" y="99"/>
      <point x="135" y="51"/>
      <point x="198" y="30" type="curve" smooth="yes"/>
      <point x="269" y="6"/>
      <point x="283" y="-16"/>
      <point x="283" y="-48" type="curve" smooth="yes"/>
      <point x="283" y="-90"/>
      <point x="247" y="-125"/>
      <point x="175" y="-125" type="curve" smooth="yes"/>
      <point x="131" y="-125"/>
      <point x="98" y="-117"/>
      <point x="70" y="-108" type="curve"/>
      <point x="70" y="-180" type="line"/>
      <point x="95" y="-190"/>
      <point x="129" y="-198"/>
    </contour>
  </outline>
</glyph>
<glyph name="uni03DF" format="2">
  <advance width="526"/>
  <unicode hex="03DF"/>
  <anchor x="155" y="-240" name="bottom"/>
  <anchor x="369" y="765" name="top"/>
  <outline>
    <contour>
      <point x="294" y="-240" type="curve" smooth="yes"/>
      <point x="318" y="-240"/>
      <point x="344" y="-236"/>
      <point x="362" y="-228" type="curve"/>
      <point x="362" y="-159" type="line"/>
      <point x="351" y="-163"/>
      <point x="334" y="-167"/>
      <point x="314" y="-167" type="curve" smooth="yes"/>
      <point x="283" y="-167"/>
      <point x="262" y="-150"/>
      <point x="262" y="-124" type="curve" smooth="yes"/>
      <point x="262" y="-92"/>
      <point x="277" y="-65"/>
      <point x="318" y="11" type="curve" smooth="yes"/>
      <point x="493" y="337" type="line"/>
      <point x="493" y="393" type="line"/>
      <point x="165" y="323" type="line"/>
      <point x="270" y="508" type="line" smooth="yes"/>
      <point x="311" y="581"/>
      <point x="333" y="622"/>
      <point x="333" y="672" type="curve" smooth="yes"/>
      <point x="333" y="730"/>
      <point x="296" y="765"/>
      <point x="224" y="765" type="curve" smooth="yes"/>
      <point x="190" y="765"/>
      <point x="164" y="757"/>
      <point x="147" y="750" type="curve"/>
      <point x="168" y="682" type="line"/>
      <point x="185" y="689"/>
      <point x="201" y="692"/>
      <point x="215" y="692" type="curve" smooth="yes"/>
      <point x="236" y="692"/>
      <point x="247" y="681"/>
      <point x="247" y="663" type="curve" smooth="yes"/>
      <point x="247" y="633"/>
      <point x="225" y="588"/>
      <point x="191" y="528" type="curve" smooth="yes"/>
      <point x="44" y="269" type="line"/>
      <point x="44" y="217" type="line"/>
      <point x="379" y="289" type="line"/>
      <point x="225" y="7" type="line" smooth="yes"/>
      <point x="193" y="-52"/>
      <point x="176" y="-85"/>
      <point x="176" y="-135" type="curve" smooth="yes"/>
      <point x="176" y="-195"/>
      <point x="219" y="-240"/>
    </contour>
  </outline>
</glyph>
<glyph name="uni048F" format="2">
  <advance width="579"/>
  <unicode hex="048F"/>
  <anchor x="182" y="-240" name="bottom"/>
  <anchor x="347" y="536" name="top"/>
  <anchor x="616" y="536" name="topright"/>
  <outline>
    <contour>
      <point x="375" y="-96" type="line"/>
      <point x="434" y="-62" type="line"/>
      <point x="299" y="181" type="line"/>
      <point x="239" y="147" type="line"/>
    </contour>
    <component base="p"/>
  </outline>
</glyph>
<glyph name="uni1D24" format="2">
  <advance width="514"/>
  <unicode hex="1D24"/>
  <anchor x="214" y="0" name="bottom"/>
  <anchor x="367" y="760" name="top"/>
  <outline>
    <contour>
      <point x="222" y="-11" type="curve" smooth="yes"/>
      <point x="293" y="-11"/>
      <point x="350" y="7"/>
      <point x="419" y="46" type="curve"/>
      <point x="390" y="108" type="line"/>
      <point x="337" y="77"/>
      <point x="287" y="61"/>
      <point x="240" y="61" type="curve" smooth="yes"/>
      <point x="170" y="61"/>
      <point x="126" y="95"/>
      <point x="126" y="148" type="curve" smooth="yes"/>
      <point x="126" y="225"/>
      <point x="186" y="277"/>
      <point x="331" y="330" type="curve"/>
      <point x="342" y="382" type="line"/>
      <point x="486" y="444"/>
      <point x="553" y="511"/>
      <point x="553" y="617" type="curve" smooth="yes"/>
      <point x="553" y="709"/>
      <point x="480" y="765"/>
      <point x="369" y="765" type="curve" smooth="yes"/>
      <point x="298" y="765"/>
      <point x="240" y="748"/>
      <point x="172" y="708" type="curve"/>
      <point x="201" y="645" type="line"/>
      <point x="253" y="676"/>
      <point x="303" y="693"/>
      <point x="352" y="693" type="curve" smooth="yes"/>
      <point x="421" y="693"/>
      <point x="464" y="659"/>
      <point x="464" y="607" type="curve" smooth="yes"/>
      <point x="464" y="529"/>
      <point x="405" y="478"/>
      <point x="260" y="424" type="curve"/>
      <point x="249" y="372" type="line"/>
      <point x="107" y="311"/>
      <point x="37" y="243"/>
      <point x="37" y="139" type="curve" smooth="yes"/>
      <point x="37" y="46"/>
      <point x="111" y="-11"/>
    </contour>
  </outline>
</glyph>
<glyph name="uni1D7A" format="2">
  <advance width="880"/>
  <unicode hex="1D7A"/>
  <anchor x="156" y="0" name="bottom_1"/>
  <anchor x="538" y="0" name="bottom_2"/>
  <anchor x="163" y="268" name="center_1"/>
  <anchor x="648" y="268" name="center_2"/>
  <anchor x="249" y="658" name="top_1"/>
  <anchor x="533" y="760" name="top_2"/>
  <anchor x="432" y="658" name="topright_1"/>
  <anchor x="925" y="760" name="topright_2"/>
  <outline>
    <contour>
      <point x="-23" y="-75" type="line"/>
      <point x="43" y="-75" type="line"/>
      <point x="838" y="760" type="line"/>
      <point x="771" y="760" type="line"/>
    </contour>
    <component base="t"/>
    <component base="h" xOffset="301"/>
  </outline>
</glyph>
<glyph name="uni1FC1" format="2">
  <advance width="554"/>
  <unicode hex="1FC1"/>
  <anchor x="343" y="536" name="_top"/>
  <outline>
    <contour>
      <point x="203" y="745" type="curve"/>
      <point x="254" y="745" type="line"/>
      <point x="269" y="778"/>
      <point x="283" y="792"/>
      <point x="311" y="792" type="curve" smooth="yes"/>
      <point x="348" y="792"/>
      <point x="393" y="746"/>
      <point x="444" y="746" type="curve" smooth="yes"/>
      <point x="499" y="746"/>
      <point x="537" y="784"/>
      <point x="557" y="854" type="curve"/>
      <point x="506" y="854" type="line"/>
      <point x="489" y="821"/>
      <point x="477" y="807"/>
      <point x="449" y="807" type="curve" smooth="yes"/>
      <point x="412" y="807"/>
      <point x="369" y="853"/>
      <point x="317" y="853" type="curve" smooth="yes"/>
      <point x="259" y="853"/>
      <point x="221" y="815"/>
    </contour>
    <contour>
      <point x="263" y="616" type="curve"/>
      <point x="288" y="616"/>
      <point x="313" y="638"/>
      <point x="313" y="675" type="curve"/>
      <point x="313" y="699"/>
      <point x="301" y="715"/>
      <point x="273" y="715" type="curve"/>
      <point x="239" y="715"/>
      <point x="220" y="688"/>
      <point x="220" y="658" type="curve"/>
      <point x="220" y="631"/>
      <point x="238" y="616"/>
    </contour>
    <contour>
      <point x="442" y="616" type="curve"/>
      <point x="467" y="616"/>
      <point x="493" y="638"/>
      <point x="493" y="675" type="curve"/>
      <point x="493" y="699"/>
      <point x="480" y="715"/>
      <point x="453" y="715" type="curve"/>
      <point x="419" y="715"/>
      <point x="400" y="688"/>
      <point x="400" y="658" type="curve"/>
      <point x="400" y="631"/>
      <point x="418" y="616"/>
    </contour>
  </outline>
</glyph>
<glyph name="uni1FFE" format="2">
  <advance width="258"/>
  <unicode hex="1FFE"/>
  <anchor x="185" y="536" name="_top"/>
  <anchor x="217" y="774" name="top"/>
  <outline>
    <contour>
      <point x="245" y="596" type="curve"/>
      <point x="253" y="633" type="line"/>
      <point x="224" y="636"/>
      <point x="208" y="651"/>
      <point x="208" y="671" type="curve" smooth="yes"/>
      <point x="208" y="674"/>
      <point x="208" y="677"/>
      <point x="209" y="680" type="curve" smooth="yes"/>
      <point x="242" y="682"/>
      <point x="268" y="699"/>
      <point x="268" y="733" type="curve" smooth="yes"/>
      <point x="268" y="760"/>
      <point x="250" y="774"/>
      <point x="226" y="774" type="curve" smooth="yes"/>
      <point x="182" y="774"/>
      <point x="162" y="734"/>
      <point x="162" y="685" type="curve" smooth="yes"/>
      <point x="162" y="635"/>
      <point x="193" y="602"/>
    </contour>
  </outline>
</glyph>
<glyph name="uni2DF5" format="2">
  <unicode hex="2DF5"/>
  <anchor x="57" y="536" name="_top"/>
  <anchor x="116" y="834" name="top"/>
  <anchor x="279" y="834" name="topright"/>
  <outline>
    <contour>
      <point x="4" y="616" type="curve" smooth="yes"/>
      <point x="29" y="616"/>
      <point x="50" y="621"/>
      <point x="66" y="629" type="curve"/>
      <point x="66" y="658" type="line"/>
      <point x="48" y="651"/>
      <point x="29" y="645"/>
      <point x="8" y="645" type="curve" smooth="yes"/>
      <point x="-25" y="645"/>
      <point x="-45" y="664"/>
      <point x="-45" y="696" type="curve" smooth="yes"/>
      <point x="-45" y="756"/>
      <point x="-10" y="807"/>
      <point x="41" y="807" type="curve" smooth="yes"/>
      <point x="147" y="807" type="line"/>
      <point x="102" y="620" type="line"/>
      <point x="142" y="620" type="line"/>
      <point x="187" y="807" type="line"/>
      <point x="258" y="807" type="line"/>
      <point x="265" y="835" type="line"/>
      <point x="41" y="835" type="line" smooth="yes"/>
      <point x="-37" y="835"/>
      <point x="-85" y="771"/>
      <point x="-85" y="696" type="curve" smooth="yes"/>
      <point x="-85" y="642"/>
      <point x="-49" y="616"/>
    </contour>
  </outline>
</glyph>
<glyph name="uniA650" format="2">
  <advance width="879"/>
  <unicode hex="A650"/>
  <anchor x="425" y="0" name="bottom"/>
  <anchor x="581" y="714" name="top"/>
  <outline>
    <contour>
      <point x="90" y="636" type="line"/>
      <point x="279" y="636" type="line"/>
      <point x="367" y="714" type="line"/>
      <point x="107" y="714" type="line"/>
    </contour>
    <component base="afii10045" xOffset="86"/>
  </outline>
</glyph>
<glyph name="uniA680" format="2">
  <advance width="630"/>
  <unicode hex="A680"/>
  <anchor x="224" y="-187" name="bottom"/>
  <anchor x="410" y="714" name="top"/>
  <outline>
    <contour>
      <point x="313" y="636" type="line"/>
      <point x="398" y="636" type="line"/>
      <point x="459" y="920" type="line"/>
      <point x="374" y="920" type="line"/>
    </contour>
    <component base="afii10021"/>
  </outline>
</glyph>
<glyph name="uniA684" format="2">
  <advance width="1075"/>
  <unicode hex="A684"/>
  <anchor x="212" y="0" name="bottom_1"/>
  <anchor x="737" y="0" name="bottom_2"/>
  <anchor x="364" y="714" name="top_1"/>
  <anchor x="911" y="714" name="top_2"/>
  <outline>
    <contour>
      <point x="206" y="332" type="line"/>
      <point x="675" y="332" type="line"/>
      <point x="690" y="405" type="line"/>
      <point x="221" y="405" type="line"/>
    </contour>
    <component base="afii10025"/>
    <component base="afii10028" xOffset="513"/>
  </outline>
</glyph>
<glyph name="uniA756" format="2">
  <advance width="721"/>
  <unicode hex="A756"/>
  <anchor x="260" y="-170" name="bottom"/>
  <anchor x="448" y="714" name="top"/>
  <anchor x="788" y="714" name="topright"/>
  <outline>
    <contour>
      <point x="305" y="-163" type="line"/>
      <point x="602" y="-44" type="line"/>
      <point x="578" y="8" type="line"/>
      <point x="281" y="-110" type="line"/>
    </contour>
    <component base="Q" xOffset="-8"/>
  </outline>
</glyph>
<glyph name="uniA757" format="2">
  <advance width="579"/>
  <unicode hex="A757"/>
  <anchor x="182" y="-240" name="bottom"/>
  <anchor x="347" y="536" name="top"/>
  <anchor x="616" y="536" name="topright"/>
  <outline>
    <contour>
      <point x="155" y="-143" type="line"/>
      <point x="478" y="-143" type="line"/>
      <point x="492" y="-79" type="line"/>
      <point x="169" y="-79" type="line"/>
    </contour>
    <component base="q"/>
  </outline>
</glyph>
<glyph name="uniA771" format="2">
  <advance width="687"/>
  <unicode hex="A771"/>
  <anchor x="239" y="0" name="bottom"/>
  <anchor x="347" y="268" name="center"/>
  <anchor x="395" y="760" name="top"/>
  <anchor x="663" y="760" name="topright"/>
  <outline>
    <contour>
      <point x="346" y="-157" type="line"/>
      <point x="412" y="-157" type="line"/>
      <point x="638" y="228" type="line"/>
      <point x="573" y="228" type="line"/>
    </contour>
    <contour>
      <point x="393" y="0" type="line"/>
      <point x="639" y="0" type="line"/>
      <point x="655" y="72" type="line"/>
      <point x="409" y="72" type="line"/>
    </contour>
    <component base="d"/>
  </outline>
</glyph>
<glyph name="uniA78C" format="2">
  <advance width="260"/>
  <unicode hex="A78C"/>
  <outline>
    <contour>
      <point x="122" y="401" type="line"/>
      <point x="183" y="401" type="line"/>
      <point x="270" y="714" type="line"/>
      <point x="167" y="714" type="line"/>
    </contour>
  </outline>
</glyph>
<glyph name="uniA790" format="2">
  <advance width="707"/>
  <unicode hex="A790"/>
  <anchor x="297" y="0" name="bottom"/>
  <anchor x="454" y="714" name="top"/>
  <anchor x="782" y="714" name="topright"/>
  <outline>
    <contour>
      <point x="494" y="-201" type="line"/>
      <point x="581" y="-201" type="line"/>
      <point x="640" y="75" type="line"/>
      <point x="575" y="75" type="line"/>
      <point x="537" y="0" type="line"/>
    </contour>
    <component base="N"/>
  </outline>
</glyph>
<glyph name="uniA7A1" format="2">
  <advance width="579"/>
  <unicode hex="A7A1"/>
  <anchor x="182" y="-240" name="bottom"/>
  <anchor x="337" y="536" name="top"/>
  <anchor x="616" y="536" name="topright"/>
  <outline>
    <contour>
      <point x="-9" y="173" type="line"/>
      <point x="576" y="325" type="line"/>
      <point x="590" y="388" type="line"/>
      <point x="5" y="236" type="line"/>
    </contour>
    <component base="g"/>
  </outline>
</glyph>
<glyph name="uniA7A3" format="2">
  <advance width="495"/>
  <unicode hex="A7A3"/>
  <anchor x="221" y="0" name="bottom"/>
  <anchor x="232" y="760" name="top"/>
  <anchor x="580" y="760" name="topright"/>
  <outline>
    <contour>
      <point x="-5" y="190" type="line"/>
      <point x="504" y="302" type="line"/>
      <point x="517" y="365" type="line"/>
      <point x="8" y="253" type="line"/>
    </contour>
    <component base="k"/>
  </outline>
</glyph>
<glyph name="uniA7A5" format="2">
  <advance width="579"/>
  <unicode hex="A7A5"/>
  <anchor x="235" y="0" name="bottom"/>
  <anchor x="349" y="536" name="top"/>
  <anchor x="616" y="536" name="topright"/>
  <outline>
    <contour>
      <point x="-2" y="191" type="line"/>
      <point x="572" y="304" type="line"/>
      <point x="585" y="367" type="line"/>
      <point x="11" y="254" type="line"/>
    </contour>
    <component base="n"/>
  </outline>
</glyph>
<glyph name="uniAB41" format="2">
  <advance width="865"/>
  <unicode hex="AB41"/>
  <anchor x="490" y="536" name="bottom"/>
  <anchor x="376" y="0" name="top"/>
  <outline>
    <contour>
      <point x="392" y="-31" type="line"/>
      <point x="841" y="520" type="line"/>
      <point x="798" y="555" type="line"/>
      <point x="349" y="4" type="line"/>
    </contour>
    <component base="oe" xScale="-1" yScale="-1" xOffset="866" yOffset="536"/>
  </outline>
</glyph>
<glyph name="uniFE20" format="2">
  <unicode hex="FE20"/>
  <anchor x="58" y="536" name="_top"/>
  <outline>
    <contour>
      <point x="-307" y="587" type="curve"/>
      <point x="-234" y="587" type="line"/>
      <point x="-139" y="668"/>
      <point x="-37" y="704"/>
      <point x="94" y="704" type="curve"/>
      <point x="109" y="775" type="line"/>
      <point x="-50" y="775"/>
      <point x="-198" y="716"/>
    </contour>
  </outline>
</glyph>
<glyph name="uniFE22" format="2">
  <unicode hex="FE22"/>
  <anchor x="56" y="536" name="_top"/>
  <outline>
    <contour>
      <point x="-297" y="607" type="curve"/>
      <point x="-243" y="607" type="line"/>
      <point x="-219" y="642"/>
      <point x="-176" y="669"/>
      <point x="-103" y="669" type="curve" smooth="yes"/>
      <point x="-33" y="669"/>
      <point x="22" y="654"/>
      <point x="78" y="638" type="curve"/>
      <point x="92" y="705" type="line"/>
      <point x="37" y="720"/>
      <point x="-17" y="735"/>
      <point x="-85" y="735" type="curve" smooth="yes"/>
      <point x="-176" y="735"/>
      <point x="-253" y="693"/>
    </contour>
  </outline>
</glyph>
<glyph name="uniFE2F" format="2">
  <unicode hex="FE2F"/>
  <anchor x="57" y="536" name="_top"/>
  <outline>
    <contour>
      <point x="-69" y="616" type="line"/>
      <point x="170" y="616" type="line" smooth="yes"/>
      <point x="217" y="617"/>
      <point x="238" y="638"/>
      <point x="238" y="678" type="curve" smooth="yes"/>
      <point x="238" y="701"/>
      <point x="223" y="715"/>
      <point x="195" y="715" type="curve" smooth="yes"/>
      <point x="164" y="715"/>
      <point x="148" y="698"/>
      <point x="143" y="669" type="curve"/>
      <point x="-69" y="669" type="line"/>
    </contour>
  </outline>
</glyph>
<glyph name="hbar.sc" format="2">
  <advance width="563"/>
  <anchor x="221" y="0" name="bottom"/>
  <anchor x="345" y="571" name="top"/>
  <anchor x="296" y="286" name="center"/>
  <anchor x="604" y="571" name="topright"/>
  <outline>
    <contour>
      <point x="37" y="421" type="line"/>
      <point x="592" y="421" type="line"/>
      <point x="606" y="488" type="line"/>
      <point x="51" y="488" type="line"/>
    </contour>
    <component base="h.sc"/>
  </outline>
</glyph>
<glyph name="uni0268dotless" format="2">
  <advance width="258"/>
  <anchor x="72" y="0" name="bottom"/>
  <anchor x="186" y="536" name="top"/>
  <outline>
    <contour>
      <point x="10" y="248" type="line"/>
      <point x="242" y="248" type="line"/>
      <point x="257" y="319" type="line"/>
      <point x="25" y="319" type="line"/>
    </contour>
    <component base="idotless"/>
  </outline>
</glyph>
<glyph name="uniA7F7.salt" format="2">
  <advance width="722"/>
  <outline>
    <contour>
      <point x="76" y="420" type="line"/>
      <point x="57" y="330" type="line"/>
      <point x="693" y="330" type="line"/>
      <point x="712" y="420" type="line"/>
    </contour>
  </outline>
</glyph>
